<svg xmlns="http://www.w3.org/2000/svg" viewBox="0 0 100 97.531"><path d="M49.997 0C22.388 0 0 22.386 0 50.003c0 22.089 14.325 40.829 34.196 47.442 2.5.459 3.413-1.085 3.413-2.41 0-1.187-.043-4.331-.068-8.504-13.908 3.022-16.843-6.702-16.843-6.702-2.274-5.776-5.551-7.314-5.551-7.314-4.54-3.102.343-3.039.343-3.039 5.018.354 7.659 5.153 7.659 5.153 4.46 7.641 11.702 5.434 14.551 4.155.454-3.231 1.746-5.434 3.174-6.684-11.103-1.262-22.775-5.551-22.775-24.712 0-5.458 1.948-9.922 5.147-13.417-.514-1.265-2.23-6.349.49-13.232 0 0 4.198-1.344 13.75 5.126 3.988-1.109 8.265-1.664 12.518-1.683 4.246.019 8.524.574 12.518 1.683 9.546-6.47 13.736-5.126 13.736-5.126 2.728 6.884 1.012 11.967.498 13.232 3.205 3.495 5.139 7.958 5.139 13.417 0 19.208-11.69 23.435-22.829 24.673 1.795 1.544 3.395 4.595 3.395 9.259 0 6.684-.061 12.077-.061 13.716 0 1.337.901 2.893 3.438 2.404C85.687 90.814 100 72.086 100 50.003 100 22.386 77.611 0 49.997 0z" fill-rule="evenodd" clip-rule="evenodd"/></svg>