<svg width="98.624" height="98.624" xmlns="http://www.w3.org/2000/svg"><path d="M49.312 0C22.078 0 0 22.078 0 49.312s22.078 49.312 49.312 49.312 49.312-22.078 49.312-49.312S76.546 0 49.312 0zm21.384 55.83c.388.48 1.311 1.415 2.771 2.807h.034l.034.033.034.035.069.068c3.216 2.988 5.394 5.509 6.535 7.562.069.113.143.257.223.428.079.171.159.473.239.906.079.435.073.821-.017 1.163-.091.341-.376.657-.855.941-.479.286-1.152.428-2.019.428l-8.759.138c-.547.114-1.186.057-1.916-.171-.731-.229-1.323-.48-1.779-.753l-.685-.412c-.685-.479-1.483-1.209-2.395-2.189-.913-.981-1.694-1.865-2.344-2.652s-1.346-1.447-2.088-1.985c-.742-.536-1.386-.713-1.933-.53-.068.024-.16.064-.274.12-.115.057-.308.221-.582.496a4.38 4.38 0 00-.736 1.009c-.217.4-.411.993-.582 1.78-.171.786-.246 1.671-.222 2.652 0 .341-.041.656-.12.941-.08.285-.166.496-.257.632l-.137.171c-.411.435-1.015.685-1.813.753h-3.935c-1.62.092-3.285-.096-4.995-.564-1.71-.469-3.211-1.072-4.499-1.814a40.451 40.451 0 01-3.524-2.257c-1.061-.765-1.865-1.42-2.412-1.967l-.855-.822c-.228-.227-.542-.57-.941-1.027-.399-.456-1.214-1.493-2.446-3.113a85.159 85.159 0 01-3.627-5.167c-1.186-1.825-2.583-4.232-4.192-7.22a112.8 112.8 0 01-4.465-9.306c-.137-.364-.206-.672-.206-.923 0-.25.034-.433.103-.548l.137-.205c.342-.434.992-.651 1.95-.651l9.375-.068c.274.046.536.12.787.223.251.102.434.199.548.29l.171.103c.365.252.638.616.821 1.095a53.533 53.533 0 001.574 3.542 84.801 84.801 0 001.403 2.788l.547.993a40.655 40.655 0 001.916 3.558c.617 1.004 1.169 1.786 1.66 2.344.49.559.963.999 1.42 1.317.456.32.844.48 1.164.48.319 0 .627-.057.924-.171.045-.023.102-.08.171-.171s.205-.342.411-.754c.205-.41.359-.946.462-1.608.103-.66.211-1.584.325-2.77.114-1.187.114-2.612 0-4.277a16.025 16.025 0 00-.308-2.498c-.16-.752-.32-1.277-.479-1.574l-.206-.41c-.57-.775-1.539-1.266-2.908-1.472-.297-.044-.24-.318.171-.82a4.628 4.628 0 011.3-1.027c1.209-.592 3.935-.866 8.178-.822 1.87.024 3.41.171 4.619.445.456.115.838.268 1.146.462.308.193.542.468.702.82.159.354.279.719.359 1.095.08.377.12.897.12 1.557 0 .662-.011 1.29-.034 1.882-.023.593-.051 1.398-.085 2.412a84.906 84.906 0 00-.052 2.823c0 .252-.011.73-.034 1.437-.023.708-.03 1.255-.017 1.642.011.388.051.851.119 1.386.069.536.2.982.394 1.334.193.354.45.633.77.838.182.047.376.092.582.138.205.045.501-.079.889-.377.387-.296.821-.69 1.3-1.18.479-.489 1.072-1.253 1.779-2.292a73.132 73.132 0 002.326-3.678c1.369-2.372 2.589-4.939 3.661-7.699a2.32 2.32 0 01.342-.599c.137-.172.262-.292.376-.36l.137-.103.171-.085c.069-.033.217-.068.445-.103.228-.033.456-.039.685-.016l9.854-.07c.889-.113 1.619-.085 2.189.085.57.171.924.36 1.061.565l.206.342c.524 1.461-1.186 4.812-5.132 10.059-.548.731-1.29 1.701-2.224 2.909-1.779 2.282-2.805 3.776-3.077 4.485-.39.933-.23 1.857.477 2.768z" fill="#597da3"/></svg>